<?xml version="1.0" encoding="UTF-8" standalone="no"?><!DOCTYPE svg PUBLIC "-//W3C//DTD SVG 1.1//EN" "http://www.w3.org/Graphics/SVG/1.1/DTD/svg11.dtd"><svg width="100%" height="100%" viewBox="0 0 50 50" version="1.1" xmlns="http://www.w3.org/2000/svg" xmlns:xlink="http://www.w3.org/1999/xlink" xml:space="preserve" xmlns:serif="http://www.serif.com/" style="fill-rule:evenodd;clip-rule:evenodd;stroke-linecap:round;stroke-linejoin:round;stroke-miterlimit:1.5;"><path d="M34,7c0,-4 -4,-3.995 -4,-3.995l-15,0c-2.76,0 -5,2.241 -5,5.001l0,24.999c0,2.76 2.24,5 5,5" style="fill:none;stroke:#fff;stroke-width:4.34px;"/><path d="M20.252,16.857l-0,24.286c-0,2.681 2.128,4.857 4.749,4.857l14.249,0c2.622,0 4.75,-2.176 4.75,-4.857l0,-24.286c0,-2.681 -2.128,-4.857 -4.75,-4.857l-14.249,0c-2.621,0 -4.749,2.176 -4.749,4.857Z" style="fill:none;stroke:#fff;stroke-width:4.34px;"/></svg>